<svg xmlns="http://www.w3.org/2000/svg" width="1200" height="360" viewBox="0 0 1200 360" role="img" aria-label="Motion Labs. Your ideas, in motion. A creative video workspace in your browser."><defs><linearGradient id="bg" x2="1" y2="1"><stop stop-color="#172237"/><stop offset="1" stop-color="#0c1018"/></linearGradient><linearGradient id="blue"><stop stop-color="#98c3ff"/><stop offset="1" stop-color="#6186f5"/></linearGradient><radialGradient id="glow"><stop stop-color="#547af5" stop-opacity=".25"/><stop offset="1" stop-color="#547af5" stop-opacity="0"/></radialGradient></defs><rect width="1200" height="360" rx="20" fill="url(#bg)"/><circle cx="985" cy="135" r="280" fill="url(#glow)"/><rect x="55" y="55" width="52" height="52" rx="16" fill="#22324d"/><path d="M67 92V70h6l8 11 8-11h6v22h-6V79l-8 11-8-11v13z" fill="url(#blue)"/><text x="122" y="91" fill="#f0f5ff" font-family="sans-serif" font-size="32" font-weight="700" letter-spacing="-1">motion<tspan fill="#91b8ff" font-weight="400">labs</tspan></text><text x="55" y="183" fill="#edf3ff" font-family="sans-serif" font-size="49" font-weight="700" letter-spacing="-1.5">Your ideas, in motion.</text><text x="57" y="224" fill="#9aaecb" font-family="sans-serif" font-size="18">A creative video workspace. Right in your browser.</text><rect x="57" y="266" width="135" height="32" rx="16" fill="#253858"/><text x="124" y="287" fill="#a3c7ff" text-anchor="middle" font-family="sans-serif" font-size="12">EDIT · LAYER · CREATE</text><g transform="translate(705 79)"><rect width="435" height="229" rx="12" fill="#111a28" stroke="#344560"/><rect x="13" y="13" width="409" height="119" rx="6" fill="#1b2b45"/><circle cx="310" cy="72" r="42" fill="url(#blue)"/><path d="m43 69 18 11-18 11z" fill="#91b8ff"/><text x="43" y="46" fill="#d2def3" font-family="sans-serif" font-size="12">MAIN SEQUENCE</text><path d="M13 153h409M13 183h409M13 213h409" stroke="#2c3b52"/><rect x="43" y="143" width="145" height="20" rx="4" fill="#476b9e"/><rect x="193" y="143" width="172" height="20" rx="4" fill="#6086b9"/><rect x="87" y="173" width="206" height="20" rx="4" fill="#8465a7"/><rect x="43" y="203" width="322" height="13" rx="4" fill="#417d70"/><path d="M237 137v84" stroke="#98c3ff" stroke-width="2"/><path d="m232 135 5 7 5-7" fill="#98c3ff"/></g></svg>
